HIERARCHY
ROOT Hips
{
	OFFSET 0.000000 83.214638 0.000000
	CHANNELS 6 Xposition Yposition Zposition Xrotation Yrotation Zrotation
	JOINT Pelvis
	{
		OFFSET 0.000000 0.000000 0.000000
		CHANNELS 3 Xrotation Yrotation Zrotation
		JOINT LeftUpLeg
		{
			OFFSET 8.479700 -4.795502 -0.379100
			CHANNELS 3 Xrotation Yrotation Zrotation
			JOINT LeftLeg
			{
				OFFSET 0.024144 -32.555107 0.112900
				CHANNELS 3 Xrotation Yrotation Zrotation
				JOINT LeftFoot
				{
					OFFSET -0.024144 -32.638630 -3.012600
					CHANNELS 3 Xrotation Yrotation Zrotation
					JOINT LeftToeBase
					{
						OFFSET 0.970200 -13.225400 11.864200
						CHANNELS 3 Xrotation Yrotation Zrotation
						End Site
						{
							OFFSET 0.000000 12.319262 0.000000
						}
					}
					JOINT LFootTongue
					{
						OFFSET 1.142400 -1.059800 6.665200
						CHANNELS 3 Xrotation Yrotation Zrotation
						End Site
						{
							OFFSET 0.000000 12.319262 0.000000
						}
					}
				}
				JOINT LeftPantLeg
				{
					OFFSET 0.918482 -16.533964 -2.284700
					CHANNELS 3 Xrotation Yrotation Zrotation
					End Site
					{
						OFFSET 0.350399 24.744368 0.000000
					}
				}
			}
		}
		JOINT RightUpLeg
		{
			OFFSET -8.479700 -4.795502 -0.379100
			CHANNELS 3 Xrotation Yrotation Zrotation
			JOINT RightLeg
			{
				OFFSET -0.023144 -32.555092 0.112900
				CHANNELS 3 Xrotation Yrotation Zrotation
				JOINT RightFoot
				{
					OFFSET 0.023144 -32.638641 -3.012700
					CHANNELS 3 Xrotation Yrotation Zrotation
					JOINT RightToeBase
					{
						OFFSET -0.970200 -13.225400 11.864200
						CHANNELS 3 Xrotation Yrotation Zrotation
						End Site
						{
							OFFSET 0.000000 12.319244 0.000000
						}
					}
					JOINT RFootTongue
					{
						OFFSET -1.142200 -1.059800 6.665200
						CHANNELS 3 Xrotation Yrotation Zrotation
						End Site
						{
							OFFSET 0.000000 12.319243 0.000000
						}
					}
				}
				JOINT RightPantLeg
				{
					OFFSET -0.919482 -16.533978 -2.284800
					CHANNELS 3 Xrotation Yrotation Zrotation
					End Site
					{
						OFFSET -0.350400 24.744419 0.000000
					}
				}
			}
		}
	}
	JOINT Spine
	{
		OFFSET 0.000000 7.722000 1.166200
		CHANNELS 3 Xrotation Yrotation Zrotation
		JOINT Spine1
		{
			OFFSET 0.000000 12.024101 0.248800
			CHANNELS 3 Xrotation Yrotation Zrotation
			JOINT Spine2
			{
				OFFSET 0.000000 11.502998 -0.491200
				CHANNELS 3 Xrotation Yrotation Zrotation
				JOINT Neck
				{
					OFFSET 0.000000 18.430702 -3.123100
					CHANNELS 3 Xrotation Yrotation Zrotation
					JOINT Head
					{
						OFFSET 0.000000 9.051102 1.034000
						CHANNELS 3 Xrotation Yrotation Zrotation
						JOINT HairB
						{
							OFFSET 0.208400 24.786102 24.822300
							CHANNELS 3 Xrotation Yrotation Zrotation
							End Site
							{
								OFFSET 0.000000 32.263779 0.000000
							}
						}
						JOINT HairA
						{
							OFFSET -7.081100 24.428299 23.196600
							CHANNELS 3 Xrotation Yrotation Zrotation
							End Site
							{
								OFFSET 0.000000 32.263779 0.000000
							}
						}
						JOINT Hat
						{
							OFFSET 16.728800 15.048294 -15.439601
							CHANNELS 3 Xrotation Yrotation Zrotation
							End Site
							{
								OFFSET 0.000000 32.263779 0.000000
							}
						}
					}
				}
				JOINT LeftShoulder
				{
					OFFSET 6.197800 13.665199 -4.064700
					CHANNELS 3 Xrotation Yrotation Zrotation
					JOINT LeftArm
					{
						OFFSET 7.778100 -0.187103 -1.709300
						CHANNELS 3 Xrotation Yrotation Zrotation
						JOINT LeftForeArm
						{
							OFFSET 22.049376 0.000000 0.000000
							CHANNELS 3 Xrotation Yrotation Zrotation
							JOINT LeftHand
							{
								OFFSET 23.009392 0.000000 0.000000
								CHANNELS 3 Xrotation Yrotation Zrotation
								JOINT LeftHandThumb1
								{
									OFFSET 3.507191 -2.063065 3.133727
									CHANNELS 3 Xrotation Yrotation Zrotation
									JOINT LeftHandThumb2
									{
										OFFSET 3.101337 -1.790558 1.790558
										CHANNELS 3 Xrotation Yrotation Zrotation
										JOINT LeftHandThumb3
										{
											OFFSET 3.058640 -1.765907 1.765906
											CHANNELS 3 Xrotation Yrotation Zrotation
											End Site
											{
												OFFSET -0.415260 3.926476 -0.049563
											}
										}
									}
								}
								JOINT LeftHandIndex1
								{
									OFFSET 11.334419 -0.901459 3.706815
									CHANNELS 3 Xrotation Yrotation Zrotation
									JOINT LeftHandIndex2
									{
										OFFSET 3.283112 0.000000 0.000000
										CHANNELS 3 Xrotation Yrotation Zrotation
										JOINT LeftHandIndex3
										{
											OFFSET 3.323853 0.000000 0.000000
											CHANNELS 3 Xrotation Yrotation Zrotation
											End Site
											{
												OFFSET -1.135597 3.097809 0.402452
											}
										}
									}
								}
								JOINT LeftHandMiddle1
								{
									OFFSET 11.335861 0.000000 0.000000
									CHANNELS 3 Xrotation Yrotation Zrotation
									JOINT LeftHandMiddle2
									{
										OFFSET 3.410492 0.000000 0.000000
										CHANNELS 3 Xrotation Yrotation Zrotation
										JOINT LeftHandMiddle3
										{
											OFFSET 3.312172 0.000000 0.000000
											CHANNELS 3 Xrotation Yrotation Zrotation
											End Site
											{
												OFFSET -1.150200 3.080154 0.400270
											}
										}
									}
								}
								JOINT LeftHandRing1
								{
									OFFSET 11.514786 -0.013176 -3.003090
									CHANNELS 3 Xrotation Yrotation Zrotation
									JOINT LeftHandRing2
									{
										OFFSET 3.053307 0.000000 0.000000
										CHANNELS 3 Xrotation Yrotation Zrotation
										JOINT LeftHandRing3
										{
											OFFSET 3.295807 0.000000 0.000000
											CHANNELS 3 Xrotation Yrotation Zrotation
											End Site
											{
												OFFSET -1.281006 3.013344 0.375733
											}
										}
									}
								}
								JOINT LeftHandPinky1
								{
									OFFSET 10.518692 -0.960396 -5.730441
									CHANNELS 3 Xrotation Yrotation Zrotation
									JOINT LeftHandPinky2
									{
										OFFSET 2.861649 0.000000 0.000000
										CHANNELS 3 Xrotation Yrotation Zrotation
										JOINT LeftHandPinky3
										{
											OFFSET 2.863380 0.000000 0.000000
											CHANNELS 3 Xrotation Yrotation Zrotation
											End Site
											{
												OFFSET -0.843597 2.711159 0.369971
											}
										}
									}
								}
							}
							JOINT LSleeve
							{
								OFFSET 6.676277 -0.344902 -1.011730
								CHANNELS 3 Xrotation Yrotation Zrotation
								End Site
								{
									OFFSET 0.000000 14.885353 0.000000
								}
							}
						}
					}
				}
				JOINT RightShoulder
				{
					OFFSET -6.197800 13.665199 -4.064700
					CHANNELS 3 Xrotation Yrotation Zrotation
					JOINT RightArm
					{
						OFFSET -7.778100 -0.187103 -1.709300
						CHANNELS 3 Xrotation Yrotation Zrotation
						JOINT RightForeArm
						{
							OFFSET -22.049376 0.000000 0.000000
							CHANNELS 3 Xrotation Yrotation Zrotation
							JOINT RightHand
							{
								OFFSET -23.009392 0.000000 0.000000
								CHANNELS 3 Xrotation Yrotation Zrotation
								JOINT RightHandThumb1
								{
									OFFSET -3.507191 -2.063065 3.133727
									CHANNELS 3 Xrotation Yrotation Zrotation
									JOINT RightHandThumb2
									{
										OFFSET -3.101337 -1.790558 1.790558
										CHANNELS 3 Xrotation Yrotation Zrotation
										JOINT RightHandThumb3
										{
											OFFSET -3.058640 -1.765907 1.765906
											CHANNELS 3 Xrotation Yrotation Zrotation
											End Site
											{
												OFFSET 0.415260 3.926476 -0.049563
											}
										}
									}
								}
								JOINT RightHandIndex1
								{
									OFFSET -11.334419 -0.901459 3.706815
									CHANNELS 3 Xrotation Yrotation Zrotation
									JOINT RightHandIndex2
									{
										OFFSET -3.283112 0.000000 0.000000
										CHANNELS 3 Xrotation Yrotation Zrotation
										JOINT RightHandIndex3
										{
											OFFSET -3.323853 0.000000 0.000000
											CHANNELS 3 Xrotation Yrotation Zrotation
											End Site
											{
												OFFSET 1.135597 3.097809 0.402452
											}
										}
									}
								}
								JOINT RightHandMiddle1
								{
									OFFSET -11.335861 0.000000 0.000000
									CHANNELS 3 Xrotation Yrotation Zrotation
									JOINT RightHandMiddle2
									{
										OFFSET -3.410492 0.000000 0.000000
										CHANNELS 3 Xrotation Yrotation Zrotation
										JOINT RightHandMiddle3
										{
											OFFSET -3.312172 0.000000 0.000000
											CHANNELS 3 Xrotation Yrotation Zrotation
											End Site
											{
												OFFSET 1.150200 3.080154 0.400270
											}
										}
									}
								}
								JOINT RightHandRing1
								{
									OFFSET -11.514786 -0.013176 -3.003090
									CHANNELS 3 Xrotation Yrotation Zrotation
									JOINT RightHandRing2
									{
										OFFSET -3.053307 0.000000 0.000000
										CHANNELS 3 Xrotation Yrotation Zrotation
										JOINT RightHandRing3
										{
											OFFSET -3.295807 0.000000 0.000000
											CHANNELS 3 Xrotation Yrotation Zrotation
											End Site
											{
												OFFSET 1.281006 3.013344 0.375733
											}
										}
									}
								}
								JOINT RightHandPinky1
								{
									OFFSET -10.518692 -0.960396 -5.730441
									CHANNELS 3 Xrotation Yrotation Zrotation
									JOINT RightHandPinky2
									{
										OFFSET -2.861649 0.000000 0.000000
										CHANNELS 3 Xrotation Yrotation Zrotation
										JOINT RightHandPinky3
										{
											OFFSET -2.863380 0.000000 0.000000
											CHANNELS 3 Xrotation Yrotation Zrotation
											End Site
											{
												OFFSET 0.843597 2.711159 0.369971
											}
										}
									}
								}
							}
							JOINT RSleeve
							{
								OFFSET -6.676277 -0.344902 -1.011730
								CHANNELS 3 Xrotation Yrotation Zrotation
								End Site
								{
									OFFSET 0.000000 14.885353 0.000000
								}
							}
						}
					}
				}
				JOINT Backpack
				{
					OFFSET 0.000000 -2.471497 36.677502
					CHANNELS 3 Xrotation Yrotation Zrotation
					End Site
					{
						OFFSET 0.000000 20.427315 0.000000
					}
				}
				JOINT Hood
				{
					OFFSET 0.000000 18.754097 -10.431000
					CHANNELS 3 Xrotation Yrotation Zrotation
					JOINT Hood1
					{
						OFFSET 0.000000 -5.011002 -7.685901
						CHANNELS 3 Xrotation Yrotation Zrotation
						End Site
						{
							OFFSET 0.000000 9.175140 0.000000
						}
					}
				}
				JOINT LHoodieString
				{
					OFFSET 5.250500 16.397697 3.089900
					CHANNELS 3 Xrotation Yrotation Zrotation
					JOINT LHoodieString1
					{
						OFFSET 0.257700 -6.364304 3.694600
						CHANNELS 3 Xrotation Yrotation Zrotation
						JOINT LHoodieString2
						{
							OFFSET 0.000000 -9.643799 2.679100
							CHANNELS 3 Xrotation Yrotation Zrotation
							End Site
							{
								OFFSET 0.000000 10.009018 0.000000
							}
						}
					}
				}
				JOINT RHoodieString
				{
					OFFSET -5.250500 16.397697 3.089900
					CHANNELS 3 Xrotation Yrotation Zrotation
					JOINT RHoodieString1
					{
						OFFSET -0.257700 -6.364304 3.694600
						CHANNELS 3 Xrotation Yrotation Zrotation
						JOINT RHoodieString2
						{
							OFFSET 0.000000 -9.643799 2.679100
							CHANNELS 3 Xrotation Yrotation Zrotation
							End Site
							{
								OFFSET 0.000000 10.009018 0.000000
							}
						}
					}
				}
			}
			JOINT LBackpack_Strap
			{
				OFFSET 15.223200 -7.719803 -6.610900
				CHANNELS 3 Xrotation Yrotation Zrotation
				End Site
				{
					OFFSET 0.000000 16.040596 0.000000
				}
			}
			JOINT RBackpack_Strap
			{
				OFFSET -15.223000 -7.719803 -6.610900
				CHANNELS 3 Xrotation Yrotation Zrotation
				End Site
				{
					OFFSET 0.000000 16.040596 0.000000
				}
			}
		}
	}
	JOINT BoyFacialAnim_Joint
	{
		OFFSET 1.000000 -82.208099 -1.550900
		CHANNELS 3 Xrotation Yrotation Zrotation
		End Site
		{
			OFFSET 0.000000 30.012791 0.000000
		}
	}
}
MOTION
Frames: 4
Frame Time: 0.033333
-0.258332 77.263031 0.131952 -6.087192 -43.034976 -4.015864 -0.000000 -0.000001 0.000000 -27.325041 5.711044 13.933715 33.960220 -14.110963 -0.201466 -4.092948 0.706258 -8.143555 -0.000000 -0.000000 0.000000 -0.000000 -0.000000 0.000000 -0.000000 0.000003 -0.000000 -4.368477 -13.685383 -15.656771 32.702386 -9.020104 -0.425635 -20.500907 -4.052688 17.150740 -0.000000 0.000002 -0.000000 -0.000000 0.000002 -0.000000 0.000000 0.000002 0.000001 5.833959 4.645110 -1.245093 11.836546 9.037611 -3.083970 11.836550 9.037623 -3.083972 -4.303067 -1.272959 0.206311 -6.271929 20.437792 -0.377164 0.000000 0.000000 0.000000 0.000000 0.000000 0.000000 0.000000 0.000000 0.000000 1.391566 -0.695944 -7.884105 -14.260081 2.394309 -63.277181 9.865087 -47.524986 5.927942 16.172851 0.915285 18.795473 9.163615 4.814121 -5.499006 -0.335327 0.032565 0.783672 -0.000001 -0.000001 0.000002 -0.901995 -6.980939 -3.808411 0.016107 0.810183 -16.418820 0.000001 -0.000000 -0.000002 1.947850 9.683091 -14.539786 -0.456401 -1.565411 -21.881010 -0.000000 0.000001 -0.000001 2.605817 14.896875 -31.345224 -0.565385 -2.681204 -32.013479 -0.000000 0.000002 -0.000000 4.168766 18.495421 -34.986923 -0.704017 -5.785263 -39.372725 -0.000001 0.000001 -0.000000 0.000001 -0.000001 -0.000001 1.410909 9.461494 9.792750 1.220040 -24.270736 60.532852 -6.660706 41.858384 8.043813 6.225254 12.322339 11.673333 -8.895830 -4.903165 -0.383709 7.904870 -19.192502 -2.856830 0.000002 -0.000000 0.000000 -1.085503 -1.215502 4.525241 0.136588 -1.097374 16.940577 -0.000002 -0.000001 0.000003 -0.663645 -2.903915 12.731592 -0.656879 1.812105 30.579126 -0.000001 -0.000000 -0.000002 2.423640 -7.404568 21.763245 -1.002620 3.756768 37.431851 -0.000002 -0.000001 -0.000002 3.481042 -10.055078 24.322686 -1.459246 7.871927 41.092020 0.000000 -0.000002 -0.000002 -0.000001 0.000000 -0.000002 0.000000 0.000000 0.000001 0.000000 0.000000 0.000001 0.000000 0.000000 0.000001 0.000000 0.000000 0.000001 0.000000 0.000000 -0.000000 -0.000000 0.000002 0.000000 0.000000 0.000000 0.000001 0.000000 0.000000 -0.000000 -0.000000 0.000002 0.000000 0.000000 -0.000001 -0.000000 0.000000 -0.000001 -0.000000 -0.000000 -0.000001 0.000000 
-0.047057 76.929604 0.156322 -5.211777 -41.925139 -3.521597 0.000000 0.000000 0.000000 -29.297355 5.254195 14.076708 35.095622 -15.397318 -0.723623 -4.040649 0.610128 -7.533217 -0.000000 -0.000000 0.000000 -0.000000 -0.000000 -0.000000 0.000000 0.000001 0.000000 -5.225535 -13.163234 -15.099009 34.015954 -10.614269 -1.102258 -21.000443 -4.361053 18.163599 0.000000 -0.000000 0.000000 0.000000 -0.000000 0.000000 -0.000000 -0.000000 -0.000001 5.794557 4.393683 -1.169613 11.740168 8.538173 -2.909184 11.740169 8.538183 -2.909189 -4.170202 -1.142826 0.324292 -6.426544 20.330121 -0.196804 -0.000000 0.000000 -0.000000 -0.000000 0.000000 -0.000000 -0.000000 0.000000 -0.000000 1.471127 -1.058328 -7.901638 -13.885884 3.120503 -62.010024 13.271931 -50.002729 8.561606 16.437431 2.186306 18.585776 8.630280 4.603743 -5.267156 0.105966 0.780825 0.322086 0.000001 -0.000003 0.000002 -1.088381 -7.200522 -4.749690 0.013041 0.800234 -16.505062 -0.000003 0.000002 -0.000007 1.969849 9.331980 -15.082977 -0.505546 -1.631509 -22.179347 0.000004 0.000002 0.000001 2.607996 14.837913 -31.517389 -0.557243 -2.706318 -32.290232 0.000000 -0.000003 -0.000003 4.194278 18.552694 -34.761800 -0.680998 -5.805694 -39.610637 0.000002 -0.000001 0.000003 -0.000001 -0.000000 -0.000000 1.361681 9.200689 10.208740 2.580136 -25.073727 60.966323 -5.528197 44.770538 7.512190 5.520854 11.436433 10.727407 -8.236686 -5.492422 -0.433451 8.065083 -19.070873 -2.769880 -0.000002 0.000001 -0.000002 -1.125615 -1.096891 4.105526 0.173926 -1.143897 16.393685 0.000001 -0.000002 0.000001 -0.760244 -3.017944 12.123254 -0.632094 1.764335 29.971543 0.000000 0.000001 0.000002 2.382265 -7.503281 21.140807 -0.974459 3.725585 36.966698 -0.000000 -0.000002 0.000000 3.490208 -10.284470 24.255482 -1.438747 7.848168 40.683421 -0.000001 0.000000 -0.000001 0.000000 0.000000 -0.000002 0.000001 -0.000001 -0.000000 0.000001 -0.000001 -0.000000 0.000001 -0.000001 -0.000000 0.000001 -0.000001 -0.000000 0.000001 -0.000001 -0.000000 0.000001 0.000001 -0.000001 0.000001 -0.000001 -0.000000 0.000001 -0.000001 -0.000000 0.000001 0.000001 -0.000001 0.000001 0.000000 -0.000000 0.000001 0.000000 -0.000000 0.000000 0.000000 0.000000 
0.228405 76.587769 0.243305 -4.232370 -40.692266 -2.973257 -0.000000 0.000000 0.000000 -31.377770 4.733362 14.033612 36.272252 -16.432668 -1.227611 -3.947210 0.510208 -6.839064 -0.000000 0.000001 0.000000 -0.000000 0.000001 -0.000000 -0.000000 0.000002 -0.000000 -6.145358 -12.815764 -14.761418 35.224245 -12.082215 -1.564090 -21.403684 -4.663047 19.165528 0.000000 0.000001 -0.000000 0.000000 0.000001 -0.000000 0.000000 0.000001 -0.000001 5.753704 4.177818 -1.109957 11.644664 8.107394 -2.770909 11.644663 8.107397 -2.770910 -4.026276 -1.046316 0.435859 -6.608627 20.107730 -0.066053 0.000000 0.000000 0.000000 0.000000 0.000000 0.000000 0.000000 0.000000 0.000000 1.560645 -1.483499 -7.932641 -13.737591 3.688446 -60.468566 17.531229 -52.376889 12.012803 16.803657 3.523261 18.233306 8.039358 4.378789 -5.017664 0.570557 1.625806 -0.224178 0.000001 -0.000001 0.000001 -1.311870 -7.439323 -5.824267 0.009595 0.789091 -16.601524 -0.000005 0.000000 -0.000005 1.992744 8.939972 -15.770762 -0.562327 -1.708009 -22.544858 0.000000 0.000000 -0.000001 2.618327 14.735126 -31.779340 -0.547165 -2.734557 -32.599472 -0.000001 -0.000001 -0.000002 4.216812 18.603881 -34.564637 -0.652159 -5.824944 -39.869450 -0.000001 -0.000003 -0.000003 -0.000001 -0.000002 0.000001 1.288905 9.076439 10.562072 3.980681 -25.899070 61.313911 -4.135496 47.236393 6.777106 4.707258 10.926182 9.703508 -7.477311 -6.123657 -0.444397 8.204865 -18.926155 -2.692097 0.000000 0.000001 0.000001 -1.148040 -0.982314 3.514914 0.215082 -1.195761 15.789739 -0.000001 0.000000 0.000005 -0.861619 -3.158596 11.357875 -0.598654 1.722556 29.383300 -0.000001 0.000001 0.000002 2.343866 -7.648049 20.321824 -0.946398 3.687528 36.420123 -0.000001 0.000001 0.000004 3.488082 -10.533728 24.134724 -1.417794 7.823550 40.262381 -0.000000 -0.000001 0.000002 0.000001 0.000001 -0.000003 0.000003 -0.000001 0.000001 0.000003 -0.000001 0.000001 0.000003 -0.000001 0.000001 0.000003 -0.000001 0.000001 0.000003 -0.000001 0.000000 0.000003 0.000001 -0.000001 0.000003 -0.000001 0.000001 0.000003 -0.000001 0.000000 0.000003 0.000001 -0.000001 -0.000001 -0.000000 0.000000 -0.000001 -0.000000 0.000000 -0.000000 0.000000 0.000000 
0.583291 76.249077 0.408206 -3.112810 -39.653063 -2.331920 0.000000 0.000002 0.000000 -33.488807 4.214313 13.862902 37.497015 -15.765610 -1.543203 -3.760289 0.429523 -6.363413 0.000000 -0.000000 -0.000000 0.000000 -0.000000 -0.000000 0.000000 0.000001 0.000000 -7.289552 -12.474822 -14.662533 36.371632 -13.308548 -1.925938 -21.683387 -4.941728 20.118198 0.000000 -0.000000 0.000000 0.000000 -0.000000 0.000000 0.000002 -0.000001 0.000002 5.708798 4.038768 -1.090053 11.548446 7.824228 -2.728179 11.548448 7.824238 -2.728179 -3.898473 -0.963797 0.536503 -6.799612 19.870624 -0.049006 -0.000000 0.000000 -0.000000 -0.000000 0.000000 -0.000000 -0.000000 0.000000 -0.000000 1.687793 -1.833944 -7.992965 -13.795625 4.093234 -58.565723 22.781908 -54.621508 16.401171 17.226056 4.912229 17.739417 7.394242 4.138926 -4.753465 1.092360 2.537517 -0.826835 0.000001 -0.000002 -0.000001 -1.542786 -7.679224 -6.919578 0.006178 0.777987 -16.697562 -0.000000 0.000000 -0.000002 2.005565 8.503650 -16.462170 -0.626430 -1.792819 -22.960864 0.000003 -0.000002 0.000002 2.629567 14.645765 -32.048388 -0.536043 -2.765858 -32.942764 0.000000 0.000000 -0.000002 4.242725 18.664204 -34.344568 -0.620464 -5.846105 -40.136674 0.000001 0.000000 -0.000002 -0.000000 0.000000 -0.000002 1.190536 9.182893 10.772897 5.277605 -26.690930 61.451772 -2.471445 49.250616 5.884829 3.788014 10.799832 8.797503 -6.664522 -6.792668 -0.442366 8.353905 -18.772684 -2.601216 -0.000000 -0.000000 0.000001 -1.163294 -0.848644 2.870726 0.258501 -1.245510 15.205992 -0.000000 0.000001 0.000002 -0.977241 -3.285567 10.589606 -0.565007 1.681562 28.803789 0.000000 0.000001 -0.000000 2.292307 -7.784504 19.471828 -0.916200 3.645673 35.823676 0.000000 0.000002 -0.000001 3.465771 -10.769858 24.027224 -1.398620 7.800657 39.873364 -0.000001 -0.000003 -0.000002 -0.000001 -0.000000 0.000000 0.000001 -0.000000 0.000000 0.000001 -0.000000 0.000000 0.000001 -0.000000 0.000000 0.000001 -0.000000 0.000000 0.000001 -0.000000 0.000000 0.000003 -0.000002 0.000000 0.000001 -0.000000 0.000000 0.000001 -0.000000 0.000000 0.000003 -0.000002 0.000000 0.000001 0.000000 -0.000000 0.000001 0.000000 -0.000000 0.000000 0.000002 0.000000 
